<svg id="visual" viewBox="0 0 400 100" width="400" height="100" xmlns="http://www.w3.org/2000/svg" xmlns:xlink="http://www.w3.org/1999/xlink" version="1.1"><path d="M0 36L20 40L40 38L60 43L80 42L100 34L120 33L140 25L160 39L180 39L200 20L220 36L240 41L260 35L280 38L300 24L320 32L340 33L360 41L380 36L400 35L400 101L380 101L360 101L340 101L320 101L300 101L280 101L260 101L240 101L220 101L200 101L180 101L160 101L140 101L120 101L100 101L80 101L60 101L40 101L20 101L0 101Z" fill="#3b6986"></path><path d="M0 48L20 36L40 43L60 48L80 56L100 40L120 45L140 47L160 52L180 45L200 43L220 50L240 50L260 51L280 46L300 55L320 37L340 41L360 52L380 50L400 56L400 101L380 101L360 101L340 101L320 101L300 101L280 101L260 101L240 101L220 101L200 101L180 101L160 101L140 101L120 101L100 101L80 101L60 101L40 101L20 101L0 101Z" fill="#325b7b"></path><path d="M0 58L20 62L40 52L60 60L80 52L100 70L120 72L140 52L160 46L180 71L200 51L220 59L240 60L260 56L280 68L300 55L320 48L340 50L360 65L380 48L400 50L400 101L380 101L360 101L340 101L320 101L300 101L280 101L260 101L240 101L220 101L200 101L180 101L160 101L140 101L120 101L100 101L80 101L60 101L40 101L20 101L0 101Z" fill="#2a4e6f"></path><path d="M0 77L20 59L40 66L60 65L80 79L100 61L120 76L140 62L160 85L180 79L200 80L220 67L240 76L260 84L280 65L300 81L320 82L340 76L360 85L380 85L400 80L400 101L380 101L360 101L340 101L320 101L300 101L280 101L260 101L240 101L220 101L200 101L180 101L160 101L140 101L120 101L100 101L80 101L60 101L40 101L20 101L0 101Z" fill="#234163"></path><path d="M0 89L20 86L40 90L60 89L80 87L100 95L120 98L140 87L160 95L180 98L200 85L220 94L240 97L260 85L280 87L300 72L320 94L340 83L360 81L380 84L400 80L400 101L380 101L360 101L340 101L320 101L300 101L280 101L260 101L240 101L220 101L200 101L180 101L160 101L140 101L120 101L100 101L80 101L60 101L40 101L20 101L0 101Z" fill="#1d3557"></path></svg>