<svg id="visual" viewBox="0 0 400 100" width="400" height="100" xmlns="http://www.w3.org/2000/svg" xmlns:xlink="http://www.w3.org/1999/xlink" version="1.1"><path d="M0 62L20 58L40 60L60 55L80 56L100 64L120 65L140 73L160 59L180 59L200 78L220 62L240 57L260 63L280 60L300 74L320 66L340 65L360 57L380 62L400 63L400 0L380 0L360 0L340 0L320 0L300 0L280 0L260 0L240 0L220 0L200 0L180 0L160 0L140 0L120 0L100 0L80 0L60 0L40 0L20 0L0 0Z" fill="#a3b18a"></path><path d="M0 50L20 62L40 55L60 50L80 42L100 58L120 53L140 51L160 46L180 53L200 55L220 48L240 48L260 47L280 52L300 43L320 61L340 57L360 46L380 48L400 42L400 0L380 0L360 0L340 0L320 0L300 0L280 0L260 0L240 0L220 0L200 0L180 0L160 0L140 0L120 0L100 0L80 0L60 0L40 0L20 0L0 0Z" fill="#879a76"></path><path d="M0 40L20 36L40 46L60 38L80 46L100 28L120 26L140 46L160 52L180 27L200 47L220 39L240 38L260 42L280 30L300 43L320 50L340 48L360 33L380 50L400 48L400 0L380 0L360 0L340 0L320 0L300 0L280 0L260 0L240 0L220 0L200 0L180 0L160 0L140 0L120 0L100 0L80 0L60 0L40 0L20 0L0 0Z" fill="#6d8463"></path><path d="M0 21L20 39L40 32L60 33L80 19L100 37L120 22L140 36L160 13L180 19L200 18L220 31L240 22L260 14L280 33L300 17L320 16L340 22L360 13L380 13L400 18L400 0L380 0L360 0L340 0L320 0L300 0L280 0L260 0L240 0L220 0L200 0L180 0L160 0L140 0L120 0L100 0L80 0L60 0L40 0L20 0L0 0Z" fill="#536f51"></path><path d="M0 9L20 12L40 8L60 9L80 11L100 3L120 0L140 11L160 3L180 0L200 13L220 4L240 1L260 13L280 11L300 26L320 4L340 15L360 17L380 14L400 18L400 0L380 0L360 0L340 0L320 0L300 0L280 0L260 0L240 0L220 0L200 0L180 0L160 0L140 0L120 0L100 0L80 0L60 0L40 0L20 0L0 0Z" fill="#3a5a40"></path></svg>