<svg xmlns="http://www.w3.org/2000/svg" version="1.1" xmlns:xlink="http://www.w3.org/1999/xlink" xmlns:svgjs="http://svgjs.com/svgjs" width="500" height="5000" preserveAspectRatio="none" viewBox="0 0 500 5000"><g mask="url(&quot;#SvgjsMask1054&quot;)" fill="none"><path d="M322.116,4930.644C353.993,4930.447,388.956,4922.486,403.535,4894.137C417.382,4867.211,399.353,4837.472,383.2,4811.863C368.532,4788.609,349.59,4766.075,322.116,4765.058C293.143,4763.985,268.276,4782.602,252.658,4807.029C235.494,4833.875,223.327,4867.375,238.936,4895.154C254.763,4923.321,289.808,4930.844,322.116,4930.644" fill="rgba(140, 19, 164, 0.05)" class="triangle-float3"></path><path d="M107.798,3393.732C159.509,3392.183,190.878,3343.104,216.673,3298.259C242.365,3253.594,266.875,3202.922,244.155,3156.674C219.248,3105.975,164.232,3074.202,107.798,3076.639C54.787,3078.929,15.219,3120.724,-9.578,3167.633C-32.544,3211.077,-35.633,3261.524,-12.991,3305.138C11.667,3352.636,54.305,3395.334,107.798,3393.732" fill="rgba(140, 19, 164, 0.05)" class="triangle-float2"></path><path d="M188.249,4613.854C215.807,4613.333,239.22,4596.168,253.399,4572.531C268.059,4548.092,274.494,4518.025,260.686,4493.095C246.511,4467.502,217.505,4454.892,188.249,4454.903C159.014,4454.914,130.553,4467.848,115.907,4493.15C101.235,4518.497,103.628,4549.959,118.684,4575.08C133.311,4599.485,159.801,4614.392,188.249,4613.854" fill="rgba(140, 19, 164, 0.05)" class="triangle-float2"></path><path d="M292.378,3686.547C344.53,3687.592,396.816,3662.993,420.49,3616.513C442.561,3573.179,420.948,3524.471,396.271,3482.566C372.096,3441.513,340.013,3398.141,292.378,3398.966C245.587,3399.777,217.473,3445.267,194.539,3486.06C172.242,3525.72,152.904,3570.664,172.858,3611.553C194.966,3656.856,241.978,3685.537,292.378,3686.547" fill="rgba(140, 19, 164, 0.05)" class="triangle-float2"></path><path d="M20.463,819.817C35.981,819.093,47.12,806.254,54.26,792.457C60.744,779.926,61.016,765.761,55.052,752.974C47.835,737.5,37.519,720.783,20.463,719.996C2.551,719.17,-11.817,733.62,-20.135,749.505C-27.823,764.187,-27.562,781.535,-19.275,795.887C-10.988,810.238,3.909,820.589,20.463,819.817" fill="rgba(140, 19, 164, 0.05)" class="triangle-float3"></path><path d="M259.471,160.739C292.493,158.734,321.845,142.901,340.201,115.378C361.197,83.897,375.534,45.322,359.214,11.182C340.896,-27.136,301.856,-56.201,259.471,-53.495C220.124,-50.983,198.711,-11.831,179.593,22.651C161.305,55.634,140.879,93.689,159.763,126.335C178.632,158.954,221.857,163.023,259.471,160.739" fill="rgba(140, 19, 164, 0.05)" class="triangle-float3"></path><path d="M442.838,3822.742C491.887,3822.159,541.125,3800.895,563.509,3757.248C584.451,3716.412,566.103,3669.346,541.312,3630.725C518.909,3595.826,484.309,3569.39,442.838,3569.264C401.162,3569.137,366.242,3595.316,343.318,3630.121C317.246,3669.706,295.338,3718.066,317.095,3760.177C340.127,3804.756,392.665,3823.338,442.838,3822.742" fill="rgba(140, 19, 164, 0.05)" class="triangle-float1"></path><path d="M408.507,1071.585C440.769,1071.268,464.038,1044.198,479.657,1015.966C494.665,988.838,501.196,957.124,487.108,929.507C471.716,899.333,442.321,878.485,408.507,876.486C370.865,874.26,329.431,885.73,311.97,919.152C295.282,951.094,315.61,986.942,334.892,1017.389C352.366,1044.98,375.85,1071.906,408.507,1071.585" fill="rgba(140, 19, 164, 0.05)" class="triangle-float1"></path><path d="M356.122,2523.442C397.175,2524.655,444.74,2525.662,466.326,2490.721C488.553,2454.743,470.787,2409.707,448.645,2373.677C427.782,2339.727,395.942,2312.887,356.122,2311.389C313.698,2309.793,271.854,2329.421,250.704,2366.232C229.623,2402.923,233.077,2449.382,256.644,2484.528C277.898,2516.224,317.977,2522.315,356.122,2523.442" fill="rgba(140, 19, 164, 0.05)" class="triangle-float2"></path><path d="M511.87,4489.298C563.893,4489.682,604.787,4448.871,629.055,4402.854C651.572,4360.156,653.204,4309.336,628.712,4267.739C604.571,4226.738,559.45,4203.988,511.87,4203.828C463.994,4203.667,417.645,4225.515,393.659,4266.949C369.629,4308.46,375.13,4358.793,397.646,4401.145C421.844,4446.66,460.323,4488.917,511.87,4489.298" fill="rgba(140, 19, 164, 0.05)" class="triangle-float1"></path></g><defs><mask id="SvgjsMask1054"><rect width="500" height="5000" fill="#ffffff"></rect></mask><style>
            @keyframes float1 {
                0%{transform: translate(0, 0)}
                50%{transform: translate(-10px, 0)}
                100%{transform: translate(0, 0)}
            }

            .triangle-float1 {
                animation: float1 5s infinite;
            }

            @keyframes float2 {
                0%{transform: translate(0, 0)}
                50%{transform: translate(-5px, -5px)}
                100%{transform: translate(0, 0)}
            }

            .triangle-float2 {
                animation: float2 4s infinite;
            }

            @keyframes float3 {
                0%{transform: translate(0, 0)}
                50%{transform: translate(0, -10px)}
                100%{transform: translate(0, 0)}
            }

            .triangle-float3 {
                animation: float3 6s infinite;
            }
        </style></defs></svg>