<svg id="visual" viewBox="0 0 960 100" width="960" height="100" xmlns="http://www.w3.org/2000/svg" xmlns:xlink="http://www.w3.org/1999/xlink" version="1.1"><path d="M0 74L53 61L107 54L160 88L213 62L267 71L320 64L373 89L427 66L480 76L533 57L587 71L640 77L693 68L747 59L800 85L853 60L907 66L960 68L960 0L907 0L853 0L800 0L747 0L693 0L640 0L587 0L533 0L480 0L427 0L373 0L320 0L267 0L213 0L160 0L107 0L53 0L0 0Z" fill="#a3b18a"></path><path d="M0 73L53 52L107 67L160 65L213 57L267 47L320 70L373 42L427 61L480 63L533 72L587 57L640 46L693 44L747 41L800 42L853 57L907 51L960 53L960 0L907 0L853 0L800 0L747 0L693 0L640 0L587 0L533 0L480 0L427 0L373 0L320 0L267 0L213 0L160 0L107 0L53 0L0 0Z" fill="#879a76"></path><path d="M0 39L53 44L107 56L160 49L213 48L267 48L320 46L373 47L427 52L480 53L533 43L587 53L640 51L693 45L747 38L800 31L853 51L907 49L960 42L960 0L907 0L853 0L800 0L747 0L693 0L640 0L587 0L533 0L480 0L427 0L373 0L320 0L267 0L213 0L160 0L107 0L53 0L0 0Z" fill="#6d8463"></path><path d="M0 32L53 16L107 43L160 13L213 28L267 26L320 13L373 24L427 28L480 42L533 18L587 20L640 18L693 32L747 32L800 32L853 29L907 25L960 28L960 0L907 0L853 0L800 0L747 0L693 0L640 0L587 0L533 0L480 0L427 0L373 0L320 0L267 0L213 0L160 0L107 0L53 0L0 0Z" fill="#536f51"></path><path d="M0 2L53 28L107 17L160 23L213 25L267 13L320 11L373 1L427 17L480 11L533 3L587 26L640 29L693 15L747 10L800 22L853 1L907 9L960 23L960 0L907 0L853 0L800 0L747 0L693 0L640 0L587 0L533 0L480 0L427 0L373 0L320 0L267 0L213 0L160 0L107 0L53 0L0 0Z" fill="#3a5a40"></path></svg>