<svg id="visual" viewBox="0 0 960 100" width="960" height="100" xmlns="http://www.w3.org/2000/svg" xmlns:xlink="http://www.w3.org/1999/xlink" version="1.1"><path d="M0 24L53 37L107 44L160 10L213 36L267 27L320 34L373 9L427 32L480 22L533 41L587 27L640 21L693 30L747 39L800 13L853 38L907 32L960 30L960 101L907 101L853 101L800 101L747 101L693 101L640 101L587 101L533 101L480 101L427 101L373 101L320 101L267 101L213 101L160 101L107 101L53 101L0 101Z" fill="#3b6986"></path><path d="M0 25L53 46L107 31L160 33L213 41L267 51L320 28L373 56L427 37L480 35L533 26L587 41L640 52L693 54L747 57L800 56L853 41L907 47L960 45L960 101L907 101L853 101L800 101L747 101L693 101L640 101L587 101L533 101L480 101L427 101L373 101L320 101L267 101L213 101L160 101L107 101L53 101L0 101Z" fill="#325b7b"></path><path d="M0 59L53 54L107 42L160 49L213 50L267 50L320 52L373 51L427 46L480 45L533 55L587 45L640 47L693 53L747 60L800 67L853 47L907 49L960 56L960 101L907 101L853 101L800 101L747 101L693 101L640 101L587 101L533 101L480 101L427 101L373 101L320 101L267 101L213 101L160 101L107 101L53 101L0 101Z" fill="#2a4e6f"></path><path d="M0 66L53 82L107 55L160 85L213 70L267 72L320 85L373 74L427 70L480 56L533 80L587 78L640 80L693 66L747 66L800 66L853 69L907 73L960 70L960 101L907 101L853 101L800 101L747 101L693 101L640 101L587 101L533 101L480 101L427 101L373 101L320 101L267 101L213 101L160 101L107 101L53 101L0 101Z" fill="#234163"></path><path d="M0 96L53 70L107 81L160 75L213 73L267 85L320 87L373 97L427 81L480 87L533 95L587 72L640 69L693 83L747 88L800 76L853 97L907 89L960 75L960 101L907 101L853 101L800 101L747 101L693 101L640 101L587 101L533 101L480 101L427 101L373 101L320 101L267 101L213 101L160 101L107 101L53 101L0 101Z" fill="#1d3557"></path></svg>