<?xml version="1.0" encoding="utf-8"?>
<!-- Svg Vector Icons : http://www.onlinewebfonts.com/icon -->
<!DOCTYPE svg PUBLIC "-//W3C//DTD SVG 1.1//EN" "http://www.w3.org/Graphics/SVG/1.1/DTD/svg11.dtd">
<svg version="1.1" xmlns="http://www.w3.org/2000/svg" xmlns:xlink="http://www.w3.org/1999/xlink" x="0px" y="0px" viewBox="0 0 1000 1000" enable-background="new 0 0 1000 1000" xml:space="preserve">
<metadata> Svg Vector Icons : http://www.onlinewebfonts.com/icon </metadata>
<g><path d="M467.7,604.9c-33.5-22.7-67.2-45-100.8-67.7c-4.4-3-7.5-3.2-12-0.1l-85,57.2c68.2,45.4,203.9,136,203.9,136V612.7C473.7,610,470.4,606.6,467.7,604.9z"/><path d="M366.8,466.5c33.8-22.2,67.5-44.6,100.9-67.5c3.3-2.2,6.1-7.7,6.1-11.7V274.2c0,0-135.7,90-204,135.5c30,20,58.3,39.2,87,57.8C359,469,364.2,468.1,366.8,466.5z"/><path d="M530.3,398c34.6,23.4,69.3,46.6,104.2,69.6c2,1.3,6.4,1.3,8.4,0l87-57.9L526.3,273.6v116.7C526.3,392.9,528,396.4,530.3,398z"/><path d="M504.6,443.9c-2.6-1.8-7.9-1.2-10.4,0.4c-10.5,6.5-20.7,13.6-31,20.5c-18,12.1-55.5,37.2-55.5,37.2l85,56.6c3.8,2.5,9.7,2.7,13.7,0.2l85.3-56.9C591.8,502,517.2,452.3,504.6,443.9z"/><path d="M248.4,458.7v86.6l64.8-43.4L248.4,458.7z"/><path d="M500,10C229.4,10,10,229.4,10,500c0,270.6,219.4,490,490,490c270.6,0,490-219.4,490-490C990,229.4,770.6,10,500,10z M804.1,589.7c0,12.7-5.8,21.6-16.4,28.6c-90,59.8-179.9,119.7-269.7,179.8c-12.8,8.6-24.4,8.2-37.2-0.3C391.6,738.1,302,678.5,212.5,619.2c-11.2-7.4-16.6-16.5-16.6-30V414.7c0-13.4,5.5-22.6,16.7-30c89.5-59.3,179.2-118.9,268.5-178.7c12.7-8.5,24.3-8.8,37.1-0.2c89.8,60.1,179.7,120,269.6,179.8c10.2,6.8,16.3,15.2,16.3,27.7V589.7z"/><path d="M631.8,537.7c-32.9,22.4-66,44.5-99.3,66.4c-5.3,3.5-6.3,7.3-6.3,13.5v112.3l203.5-135.6l-84.3-56.6C640.4,534.1,636.9,534.2,631.8,537.7z"/><path d="M749.4,545.2v-86.7L684.6,502L749.4,545.2z"/></g>
</svg>