<svg xmlns="http://www.w3.org/2000/svg" version="1.1" xmlns:xlink="http://www.w3.org/1999/xlink" xmlns:svgjs="http://svgjs.com/svgjs" width="1080" height="3500" preserveAspectRatio="none" viewBox="0 0 1080 3500"><g mask="url(&quot;#SvgjsMask1001&quot;)" fill="none"><path d="M 431,-1514.3827278584463 C 510.8,-1339.38 856.8,-989.38 830,-639.3827278584462 C 803.2,-289.38 320.4,-114.38 297,235.61727214155383 C 273.6,585.62 704.6,760.62 713,1110.6172721415537 C 721.4,1460.62 332.6,1635.62 339,1985.6172721415537 C 345.4,2335.62 742.6,2557.74 745,2860.6172721415537 C 747.4,3163.49 429.8,3372.12 351,3500" stroke="rgba(59, 105, 134, 0.10196078431372549)" stroke-width="2"></path><path d="M 320,-3.1355143627649795 C 375.4,171.86 599.4,521.86 597,871.864485637235 C 594.6,1221.86 289.6,1396.86 308,1746.864485637235 C 326.4,2096.86 661.4,2271.86 689,2621.864485637235 C 716.6,2971.86 419.4,3146.86 446,3496.864485637235 C 472.6,3846.86 816,4371.24 822,4371.864485637235 C 828,4372.49 545.2,3674.37 476,3500" stroke="rgba(59, 105, 134, 0.10196078431372549)" stroke-width="2"></path><path d="M 454,-339.1056412118928 C 519.8,-164.11 790.6,185.89 783,535.8943587881072 C 775.4,885.89 442.8,1060.89 416,1410.8943587881072 C 389.2,1760.89 657.2,1935.89 649,2285.894358788107 C 640.8,2635.89 386.8,2810.89 375,3160.894358788107 C 363.2,3510.89 594.4,3968.07 590,4035.894358788107 C 585.6,4103.72 400.4,3607.18 353,3500" stroke="rgba(59, 105, 134, 0.10196078431372549)" stroke-width="2"></path><path d="M 377,-529.0694189166178 C 451.2,-354.07 753.2,-4.07 748,345.9305810833822 C 742.8,695.93 379,870.93 351,1220.930581083382 C 323,1570.93 571.4,1745.93 608,2095.930581083382 C 644.6,2445.93 515.2,2620.93 534,2970.930581083382 C 552.8,3320.93 701,3740.12 702,3845.930581083382 C 703,3951.74 571.6,3569.19 539,3500" stroke="rgba(59, 105, 134, 0.10196078431372549)" stroke-width="2"></path></g><defs><mask id="SvgjsMask1001"><rect width="1080" height="3500" fill="#ffffff"></rect></mask></defs></svg>