<svg xmlns="http://www.w3.org/2000/svg" version="1.1" xmlns:xlink="http://www.w3.org/1999/xlink" xmlns:svgjs="http://svgjs.com/svgjs" width="1000" height="8000" preserveAspectRatio="none" viewBox="0 0 1000 8000"><g mask="url(&quot;#SvgjsMask1004&quot;)" fill="none"><path d="M 794,-573.430101283792 C 735,-373.43 543.6,26.57 499,426.569898716208 C 454.4,826.57 572.6,1026.57 571,1426.569898716208 C 569.4,1826.57 476.4,2026.57 491,2426.569898716208 C 505.6,2826.57 672.6,3026.57 644,3426.569898716208 C 615.4,3826.57 312.6,4026.57 348,4426.569898716208 C 383.4,4826.57 842.6,5026.57 821,5426.569898716208 C 799.4,5826.57 279.8,6026.57 240,6426.569898716208 C 200.2,6826.57 576.4,7026.57 622,7426.569898716208 C 667.6,7826.57 454,8311.88 468,8426.569898716209 C 482,8541.26 647.2,8085.31 692,8000" stroke="rgba(140, 19, 164, 0.05)" stroke-width="2"></path><path d="M 446,-510.9870506242724 C 461.2,-310.99 526.4,89.01 522,489.0129493757276 C 517.6,889.01 420.2,1089.01 424,1489.0129493757277 C 427.8,1889.01 592.2,2089.01 541,2489.0129493757277 C 489.8,2889.01 163.4,3089.01 168,3489.0129493757277 C 172.6,3889.01 562.4,4089.01 564,4489.012949375728 C 565.6,4889.01 173,5089.01 176,5489.012949375728 C 179,5889.01 566.2,6089.01 579,6489.012949375728 C 591.8,6889.01 186.6,7089.01 240,7489.012949375728 C 293.4,7889.01 845.6,8386.82 846,8489.012949375727 C 846.4,8591.21 362.8,8097.8 242,8000" stroke="rgba(140, 19, 164, 0.05)" stroke-width="2"></path><path d="M 801,-12.913003424810768 C 736,187.09 519.8,587.09 476,987.0869965751892 C 432.2,1387.09 644.2,1587.09 582,1987.0869965751892 C 519.8,2387.09 169.4,2587.09 165,2987.086996575189 C 160.6,3387.09 506.2,3587.09 560,3987.086996575189 C 613.8,4387.09 442.8,4587.09 434,4987.086996575189 C 425.2,5387.09 510.8,5587.09 516,5987.086996575189 C 521.2,6387.09 400.6,6587.09 460,6987.086996575189 C 519.4,7387.09 839.6,7587.09 813,7987.086996575189 C 786.4,8387.09 336.2,8984.5 327,8987.08699657519 C 317.8,8989.67 679,8197.42 767,8000" stroke="rgba(140, 19, 164, 0.05)" stroke-width="2"></path><path d="M 481,-341.0587576796165 C 498.4,-141.06 570.2,258.94 568,658.9412423203835 C 565.8,1058.94 442.8,1258.94 470,1658.9412423203835 C 497.2,2058.94 756.4,2258.94 704,2658.9412423203835 C 651.6,3058.94 181.4,3258.94 208,3658.9412423203835 C 234.6,4058.94 822.8,4258.94 837,4658.941242320383 C 851.2,5058.94 279.6,5258.94 279,5658.941242320383 C 278.4,6058.94 822,6258.94 834,6658.941242320383 C 846,7058.94 346.2,7258.94 339,7658.941242320383 C 331.8,8058.94 811,8590.73 798,8658.941242320383 C 785,8727.15 378.8,8131.79 274,8000" stroke="rgba(140, 19, 164, 0.05)" stroke-width="2"></path></g><defs><mask id="SvgjsMask1004"><rect width="1000" height="8000" fill="#ffffff"></rect></mask></defs></svg>