<svg xmlns="http://www.w3.org/2000/svg" version="1.1" xmlns:xlink="http://www.w3.org/1999/xlink" xmlns:svgjs="http://svgjs.com/svgjs" width="1000" height="8000" preserveAspectRatio="none" viewBox="0 0 1000 8000"><g mask="url(&quot;#SvgjsMask1003&quot;)" fill="none"><path d="M 745,-1423.8398527208478 C 688.2,-1223.84 469.4,-823.84 461,-423.8398527208479 C 452.6,-23.84 759,176.16 703,576.1601472791522 C 647,976.16 161.4,1176.16 181,1576.1601472791522 C 200.6,1976.16 769,2176.16 801,2576.160147279152 C 833,2976.16 332.6,3176.16 341,3576.160147279152 C 349.4,3976.16 829.2,4176.16 843,4576.160147279152 C 856.8,4976.16 454.4,5176.16 410,5576.160147279152 C 365.6,5976.16 626.6,6176.16 621,6576.160147279152 C 615.4,6976.16 359.4,7291.39 382,7576.160147279152 C 404.6,7860.93 663.6,7915.23 734,8000" stroke="rgba(140, 19, 164, 0.1)" stroke-width="2"></path><path d="M 342,-1472.0903349667024 C 399.6,-1272.09 614.2,-872.09 630,-472.0903349667023 C 645.8,-72.09 414.2,127.91 421,527.9096650332976 C 427.8,927.91 701.6,1127.91 664,1527.9096650332976 C 626.4,1927.91 197.6,2127.91 233,2527.9096650332976 C 268.4,2927.91 794.6,3127.91 841,3527.9096650332976 C 887.4,3927.91 524.2,4127.91 465,4527.909665033298 C 405.8,4927.91 585.6,5127.91 545,5527.909665033298 C 504.4,5927.91 245.6,6127.91 262,6527.909665033298 C 278.4,6927.91 607.6,7233.49 627,7527.909665033298 C 646.4,7822.33 412.6,7905.58 359,8000" stroke="rgba(140, 19, 164, 0.1)" stroke-width="2"></path><path d="M 713,-1794.2115157033427 C 645.6,-1594.21 358.8,-1194.21 376,-794.2115157033426 C 393.2,-394.21 813.4,-194.21 799,205.78848429665743 C 784.6,605.79 347.6,805.79 304,1205.7884842966573 C 260.4,1605.79 591,1805.79 581,2205.7884842966573 C 571,2605.79 241.2,2805.79 254,3205.7884842966573 C 266.8,3605.79 649.4,3805.79 645,4205.788484296658 C 640.6,4605.79 249.6,4805.79 232,5205.788484296658 C 214.4,5605.79 555.6,5805.79 557,6205.788484296658 C 558.4,6605.79 217.2,6846.95 239,7205.788484296658 C 260.8,7564.63 580.6,7841.16 666,8000" stroke="rgba(140, 19, 164, 0.1)" stroke-width="2"></path><path d="M 208,-1134.9369668273857 C 284.6,-934.94 573.4,-534.94 591,-134.93696682738576 C 608.6,265.06 270,465.06 296,865.0630331726143 C 322,1265.06 730,1465.06 721,1865.0630331726143 C 712,2265.06 243,2465.06 251,2865.0630331726143 C 259,3265.06 757.8,3465.06 761,3865.0630331726143 C 764.2,4265.06 292.8,4465.06 267,4865.063033172614 C 241.2,5265.06 599.6,5465.06 632,5865.063033172614 C 664.4,6265.06 451.6,6465.06 429,6865.063033172614 C 406.4,7265.06 546,7638.08 519,7865.063033172614 C 492,8092.05 339,7973.01 294,8000" stroke="rgba(140, 19, 164, 0.1)" stroke-width="2"></path></g><defs><mask id="SvgjsMask1003"><rect width="1000" height="8000" fill="#ffffff"></rect></mask></defs></svg>