<svg xmlns="http://www.w3.org/2000/svg" version="1.1" xmlns:xlink="http://www.w3.org/1999/xlink" xmlns:svgjs="http://svgjs.com/svgjs" width="1000" height="8000" preserveAspectRatio="none" viewBox="0 0 1000 8000"><g mask="url(&quot;#SvgjsMask1011&quot;)" fill="none"><path d="M 874,-1476.3689815290386 C 740.2,-1316.37 229.2,-996.37 205,-676.3689815290387 C 180.8,-356.37 728.6,-196.37 753,123.6310184709613 C 777.4,443.63 305.6,603.63 327,923.6310184709613 C 348.4,1243.63 877.8,1403.63 860,1723.6310184709614 C 842.2,2043.63 306.8,2203.63 238,2523.6310184709614 C 169.2,2843.63 533,3003.63 516,3323.6310184709614 C 499,3643.63 87.4,3803.63 153,4123.631018470961 C 218.6,4443.63 820.8,4603.63 844,4923.631018470961 C 867.2,5243.63 281,5403.63 269,5723.631018470961 C 257,6043.63 764.8,6203.63 784,6523.631018470961 C 803.2,6843.63 381.8,7028.36 365,7323.631018470961 C 348.2,7618.9 633,7864.73 700,8000" stroke="rgba(140, 19, 164, 0.05)" stroke-width="2"></path><path d="M 465,-1261.613032011504 C 532.2,-1101.61 830.6,-781.61 801,-461.61303201150383 C 771.4,-141.61 349.2,18.39 317,338.38696798849617 C 284.8,658.39 653.2,818.39 640,1138.386967988496 C 626.8,1458.39 225.4,1618.39 251,1938.386967988496 C 276.6,2258.39 771.8,2418.39 768,2738.386967988496 C 764.2,3058.39 240,3218.39 232,3538.386967988496 C 224,3858.39 708,4018.39 728,4338.3869679884965 C 748,4658.39 324.8,4818.39 332,5138.3869679884965 C 339.2,5458.39 770.6,5618.39 764,5938.3869679884965 C 757.4,6258.39 320,6418.39 299,6738.3869679884965 C 278,7058.39 640.8,7286.06 659,7538.3869679884965 C 677.2,7790.71 443.8,7907.68 390,8000" stroke="rgba(140, 19, 164, 0.05)" stroke-width="2"></path><path d="M 138,-896.0833858311707 C 262.2,-736.08 728.8,-416.08 759,-96.08338583117072 C 789.2,223.92 284,383.92 289,703.9166141688293 C 294,1023.92 763.6,1183.92 784,1503.9166141688293 C 804.4,1823.92 418.2,1983.92 391,2303.9166141688293 C 363.8,2623.92 672,2783.92 648,3103.9166141688293 C 624,3423.92 227.6,3583.92 271,3903.9166141688293 C 314.4,4223.92 825.2,4383.92 865,4703.916614168829 C 904.8,5023.92 506.2,5183.92 470,5503.916614168829 C 433.8,5823.92 679.6,5983.92 684,6303.916614168829 C 688.4,6623.92 464.8,6783.92 492,7103.916614168829 C 519.2,7423.92 860.8,7724.7 820,7903.916614168829 C 779.2,8083.13 394.4,7980.78 288,8000" stroke="rgba(140, 19, 164, 0.05)" stroke-width="2"></path><path d="M 608,-1400.6125063444047 C 576.8,-1240.61 433,-920.61 452,-600.6125063444048 C 471,-280.61 743.8,-120.61 703,199.38749365559522 C 662.2,519.39 230.8,679.39 248,999.3874936555952 C 265.2,1319.39 792,1479.39 789,1799.3874936555953 C 786,2119.39 256.6,2279.39 233,2599.3874936555953 C 209.4,2919.39 664.2,3079.39 671,3399.3874936555953 C 677.8,3719.39 249.2,3879.39 267,4199.387493655595 C 284.8,4519.39 780.4,4679.39 760,4999.387493655595 C 739.6,5319.39 169.2,5479.39 165,5799.387493655595 C 160.8,6119.39 728.4,6279.39 739,6599.387493655595 C 749.6,6919.39 246.6,7119.26 218,7399.387493655595 C 189.4,7679.51 520.4,7879.88 596,8000" stroke="rgba(140, 19, 164, 0.05)" stroke-width="2"></path></g><defs><mask id="SvgjsMask1011"><rect width="1000" height="8000" fill="#ffffff"></rect></mask></defs></svg>