<svg xmlns="http://www.w3.org/2000/svg" version="1.1" xmlns:xlink="http://www.w3.org/1999/xlink" xmlns:svgjs="http://svgjs.com/svgjs" width="1080" height="3500" preserveAspectRatio="none" viewBox="0 0 1080 3500"><g mask="url(&quot;#SvgjsMask1004&quot;)" fill="none"><path d="M 387,-321.45704890715547 C 463.4,-146.46 778.4,203.54 769,553.5429510928445 C 759.6,903.54 376.4,1078.54 340,1428.5429510928445 C 303.6,1778.54 580.6,1953.54 587,2303.5429510928443 C 593.4,2653.54 323.4,2828.54 372,3178.5429510928443 C 420.6,3528.54 812.6,3989.25 830,4053.5429510928443 C 847.4,4117.83 533.2,3610.71 459,3500" stroke="rgba(88, 129, 87, 0.15)" stroke-width="2"></path><path d="M 593,-909.0138412140819 C 577.8,-734.01 520.2,-384.01 517,-34.01384121408189 C 513.8,315.99 590,490.99 577,840.9861587859181 C 564,1190.99 425.2,1365.99 452,1715.9861587859182 C 478.8,2065.99 695.4,2240.99 711,2590.986158785918 C 726.6,2940.99 514.8,3284.18 530,3465.986158785918 C 545.2,3647.79 735.6,3493.2 787,3500" stroke="rgba(88, 129, 87, 0.15)" stroke-width="2"></path><path d="M 426,-1339.9732275873293 C 472,-1164.97 672.8,-814.97 656,-464.97322758732946 C 639.2,-114.97 318.2,60.03 342,410.02677241267054 C 365.8,760.03 762.8,935.03 775,1285.0267724126707 C 787.2,1635.03 417.8,1810.03 403,2160.0267724126707 C 388.2,2510.03 718,2767.03 701,3035.0267724126707 C 684,3303.02 394.6,3407.01 318,3500" stroke="rgba(88, 129, 87, 0.15)" stroke-width="2"></path><path d="M 386,-1266.8021658414889 C 467.6,-1091.8 808.4,-741.8 794,-391.80216584148894 C 779.6,-41.8 336.8,133.2 314,483.19783415851106 C 291.2,833.2 676.6,1008.2 680,1358.1978341585111 C 683.4,1708.2 333,1883.2 331,2233.197834158511 C 329,2583.2 682.8,2854.84 670,3108.197834158511 C 657.2,3361.56 347.6,3421.64 267,3500" stroke="rgba(88, 129, 87, 0.15)" stroke-width="2"></path></g><defs><mask id="SvgjsMask1004"><rect width="1080" height="3500" fill="#ffffff"></rect></mask></defs></svg>