<svg xmlns="http://www.w3.org/2000/svg" version="1.1" xmlns:xlink="http://www.w3.org/1999/xlink" xmlns:svgjs="http://svgjs.com/svgjs" width="1000" height="8000" preserveAspectRatio="none" viewBox="0 0 1000 8000"><g mask="url(&quot;#SvgjsMask1009&quot;)" fill="none"><path d="M 417,-383.6206132100989 C 489.4,-183.62 823,216.38 779,616.3793867899011 C 735,1016.38 211.4,1216.38 197,1616.3793867899012 C 182.6,2016.38 647.6,2216.38 707,2616.379386789901 C 766.4,3016.38 467.6,3216.38 494,3616.379386789901 C 520.4,4016.38 858.6,4216.38 839,4616.379386789901 C 819.4,5016.38 428.8,5216.38 396,5616.379386789901 C 363.2,6016.38 662.8,6216.38 675,6616.379386789901 C 687.2,7016.38 464.4,7216.38 457,7616.379386789901 C 449.6,8016.38 702.4,8539.66 638,8616.3793867899 C 573.6,8693.1 235.6,8123.28 135,8000" stroke="rgba(140, 19, 164, 0.05)" stroke-width="2"></path><path d="M 396,-480.44203752326314 C 443.2,-280.44 670,119.56 632,519.5579624767369 C 594,919.56 205.6,1119.56 206,1519.557962476737 C 206.4,1919.56 607.8,2119.56 634,2519.557962476737 C 660.2,2919.56 284.6,3119.56 337,3519.557962476737 C 389.4,3919.56 898.4,4119.56 896,4519.557962476737 C 893.6,4919.56 358,5119.56 325,5519.557962476737 C 292,5919.56 737.4,6119.56 731,6519.557962476737 C 724.6,6919.56 313.2,7119.56 293,7519.557962476737 C 272.8,7919.56 630.8,8423.47 630,8519.557962476736 C 629.2,8615.65 357.2,8103.91 289,8000" stroke="rgba(140, 19, 164, 0.05)" stroke-width="2"></path><path d="M 700,-807.2996550289598 C 607.2,-607.3 253.6,-207.3 236,192.70034497104015 C 218.4,592.7 611.4,792.7 612,1192.70034497104 C 612.6,1592.7 186,1792.7 239,2192.70034497104 C 292,2592.7 834.8,2792.7 877,3192.70034497104 C 919.2,3592.7 471.8,3792.7 450,4192.70034497104 C 428.2,4592.7 826.8,4792.7 768,5192.70034497104 C 709.2,5592.7 135.6,5792.7 156,6192.70034497104 C 176.4,6592.7 808.4,6792.7 870,7192.70034497104 C 931.6,7592.7 517.4,8031.24 464,8192.700344971041 C 410.6,8354.16 575.2,8038.54 603,8000" stroke="rgba(140, 19, 164, 0.05)" stroke-width="2"></path><path d="M 497,-1679.4100817608696 C 517.6,-1479.41 607.4,-1079.41 600,-679.4100817608695 C 592.6,-279.41 427.2,-79.41 460,320.5899182391305 C 492.8,720.59 793,920.59 764,1320.5899182391304 C 735,1720.59 326.4,1920.59 315,2320.5899182391304 C 303.6,2720.59 729.8,2920.59 707,3320.5899182391304 C 684.2,3720.59 179.6,3920.59 201,4320.58991823913 C 222.4,4720.59 818.2,4920.59 814,5320.58991823913 C 809.8,5720.59 219.4,5920.59 180,6320.58991823913 C 140.6,6720.59 568.4,6984.71 617,7320.58991823913 C 665.6,7656.47 461.8,7864.12 423,8000" stroke="rgba(140, 19, 164, 0.05)" stroke-width="2"></path></g><defs><mask id="SvgjsMask1009"><rect width="1000" height="8000" fill="#ffffff"></rect></mask></defs></svg>